<svg width="87" height="87" viewBox="0 0 87 87" fill="none" xmlns="http://www.w3.org/2000/svg">
<g clip-path="url(#clip0_1035_1251)">
<path d="M80.7625 35.6087C82.7363 29.6843 82.0566 23.1945 78.9002 17.806C74.1531 9.54079 64.6101 5.28849 55.29 7.28966C51.1438 2.61868 45.187 -0.0375369 38.9418 0.000525596C29.4152 -0.0212244 20.9624 6.11245 18.0314 15.1769C11.9114 16.4303 6.62883 20.2612 3.53744 25.6905C-1.24484 33.9339 -0.154626 44.3252 6.23461 51.3941C4.26079 57.3184 4.94048 63.8082 8.09695 69.1968C12.8441 77.462 22.387 81.7143 31.7071 79.7131C35.8506 84.3841 41.8101 87.0403 48.0553 86.9995C57.5874 87.024 66.0429 80.8849 68.9738 71.8122C75.0939 70.5589 80.3765 66.728 83.4678 61.2987C88.2449 53.0552 87.1519 42.6722 80.7654 35.6032L80.7625 35.6087ZM48.0607 81.3146C44.2463 81.32 40.5513 79.9851 37.6233 77.541C37.7565 77.4703 37.9876 77.3425 38.1371 77.2501L55.4613 67.2449C56.3476 66.7419 56.8914 65.7985 56.8859 64.779V40.3556L64.2077 44.5834C64.2865 44.6215 64.3382 44.6976 64.3491 44.7846V65.0099C64.3382 74.0037 57.0545 81.2956 48.0607 81.3146ZM13.0315 66.353C11.1202 63.0524 10.4324 59.1835 11.0876 55.4289C11.2154 55.505 11.441 55.6437 11.6014 55.7361L28.9256 65.7413C29.8038 66.2551 30.8913 66.2551 31.7722 65.7413L52.9218 53.5283V61.9838C52.9273 62.0708 52.8865 62.1551 52.8185 62.2094L35.3067 72.3206C27.5064 76.8122 17.5448 74.1422 13.0342 66.3528L13.0315 66.353ZM8.47214 28.537C10.3753 25.231 13.3797 22.7024 16.9575 21.3893C16.9575 21.5388 16.9494 21.8025 16.9494 21.9874V42.0006C16.9439 43.0174 17.4877 43.9608 18.3713 44.4638L39.5209 56.6741L32.1992 60.9017C32.1258 60.9507 32.0333 60.9588 31.9518 60.9235L14.4372 50.8041C6.65329 46.2963 3.98348 36.3373 8.46942 28.5398L8.47214 28.537ZM68.6284 42.5362L47.4787 30.3233L54.8005 26.0983C54.8739 26.0494 54.9663 26.0412 55.0479 26.0766L72.5624 36.1878C80.36 40.6927 83.0325 50.6682 78.5275 58.4657C76.6217 61.7663 73.62 64.2949 70.0449 65.6108V44.9994C70.053 43.9826 69.512 43.0419 68.6311 42.5362H68.6284ZM75.9148 31.5684C75.787 31.4896 75.5614 31.3537 75.401 31.2612L58.0768 21.2561C57.1986 20.7422 56.1111 20.7422 55.2302 21.2561L34.0806 33.4688V25.0134C34.0751 24.9264 34.1159 24.8421 34.1839 24.7877L51.6957 14.6847C59.4959 10.185 69.4685 12.8631 73.9655 20.6661C75.8659 23.9614 76.5537 27.8193 75.9094 31.5684H75.9148ZM30.1003 46.6388L22.7758 42.4112C22.697 42.3731 22.6453 42.297 22.6344 42.21V21.9847C22.6399 12.98 29.9453 5.68271 38.95 5.68815C42.759 5.68815 46.4458 7.02578 49.3739 9.46178C49.2406 9.53246 49.0123 9.66024 48.86 9.75268L31.5358 19.758C30.6495 20.261 30.1057 21.2017 30.1112 22.2212L30.1003 46.6334V46.6388ZM34.0778 38.0637L43.4985 32.6233L52.9191 38.061V48.9389L43.4985 54.3765L34.0778 48.9389V38.0637Z" fill="#700057"/>
</g>
<defs>
<clipPath id="clip0_1035_1251">
<rect width="87" height="87" fill="white"/>
</clipPath>
</defs>
</svg>
